<?xml version="1.0" encoding="utf-8"?>
<!-- Generator: Adobe Illustrator 16.0.4, SVG Export Plug-In . SVG Version: 6.00 Build 0)  -->
<!DOCTYPE svg PUBLIC "-//W3C//DTD SVG 1.1//EN" "http://www.w3.org/Graphics/SVG/1.1/DTD/svg11.dtd">
<svg version="1.1" id="Layer_1" xmlns="http://www.w3.org/2000/svg" xmlns:xlink="http://www.w3.org/1999/xlink" x="0px" y="0px"
	 width="496px" height="705px" viewBox="0 0 496 705" enable-background="new 0 0 496 705" xml:space="preserve">
<rect x="18" y="36.847" fill="none" stroke="#000000" stroke-miterlimit="10" width="161.539" height="140.654"/>
<g>
	<path d="M20.995,30.693v-8.839h-2.707v-1.183h6.515v1.183h-2.721v8.839H20.995z"/>
	<path d="M28.364,29.798c-0.337,0.351-0.688,0.615-1.053,0.793s-0.743,0.267-1.135,0.267c-0.62,0-1.114-0.187-1.483-0.561
		s-0.554-0.877-0.554-1.511c0-0.419,0.086-0.791,0.26-1.114s0.41-0.577,0.711-0.759s0.756-0.317,1.367-0.403
		c0.82-0.121,1.422-0.264,1.805-0.431l0.007-0.314c0-0.497-0.089-0.845-0.267-1.046c-0.25-0.292-0.636-0.438-1.155-0.438
		c-0.469,0-0.82,0.098-1.053,0.292c-0.232,0.195-0.403,0.56-0.513,1.096l-0.991-0.164c0.141-0.779,0.427-1.347,0.858-1.702
		s1.047-0.533,1.849-0.533c0.625,0,1.114,0.117,1.47,0.352s0.58,0.525,0.673,0.872s0.14,0.852,0.14,1.518v1.641
		c0,1.148,0.021,1.872,0.065,2.17s0.129,0.589,0.256,0.872h-1.053C28.464,30.443,28.396,30.144,28.364,29.798z M28.282,27.05
		c-0.369,0.182-0.918,0.337-1.647,0.465c-0.424,0.073-0.72,0.156-0.889,0.25s-0.3,0.226-0.393,0.396s-0.14,0.368-0.14,0.591
		c0,0.346,0.107,0.623,0.321,0.831s0.51,0.311,0.889,0.311c0.36,0,0.687-0.093,0.981-0.28s0.514-0.437,0.66-0.749
		s0.219-0.767,0.219-1.364V27.05z"/>
	<path d="M31.796,30.693h-0.937V20.672h1.012v3.575c0.214-0.328,0.457-0.573,0.728-0.735s0.573-0.243,0.906-0.243
		c0.465,0,0.888,0.139,1.268,0.417s0.685,0.7,0.913,1.265s0.342,1.251,0.342,2.058c0,1.23-0.258,2.18-0.774,2.847
		c-0.516,0.667-1.118,1.001-1.808,1.001c-0.347,0-0.658-0.09-0.935-0.27c-0.276-0.18-0.515-0.448-0.715-0.803V30.693z
		 M31.781,27.009c0,0.752,0.068,1.315,0.206,1.688s0.332,0.659,0.583,0.854c0.251,0.196,0.53,0.294,0.836,0.294
		c0.416,0,0.785-0.233,1.106-0.701c0.322-0.467,0.483-1.166,0.483-2.095c0-0.953-0.155-1.652-0.466-2.099
		c-0.311-0.447-0.692-0.67-1.145-0.67c-0.416,0-0.787,0.233-1.113,0.701S31.781,26.125,31.781,27.009z"/>
	<path d="M37.224,30.693V20.672h1.005v10.021H37.224z"/>
	<path d="M43.875,28.355l1.039,0.157c-0.173,0.775-0.486,1.359-0.94,1.753s-1.015,0.591-1.685,0.591c-0.843,0-1.525-0.32-2.047-0.96
		s-0.783-1.564-0.783-2.772c0-1.253,0.263-2.209,0.79-2.868s1.193-0.988,2-0.988c0.77,0,1.413,0.324,1.928,0.971
		s0.772,1.583,0.772,2.81l-0.007,0.328h-4.443c0.041,0.816,0.23,1.431,0.567,1.846s0.748,0.622,1.23,0.622
		C43.052,29.846,43.579,29.349,43.875,28.355z M40.56,26.366h3.322c-0.045-0.629-0.18-1.098-0.403-1.408
		c-0.324-0.451-0.736-0.677-1.237-0.677c-0.451,0-0.836,0.188-1.155,0.564S40.591,25.728,40.56,26.366z"/>
	<path d="M49.521,30.693V20.672h3.644c0.761,0,1.323,0.093,1.685,0.28c0.362,0.187,0.66,0.498,0.892,0.932
		c0.232,0.435,0.349,0.939,0.349,1.513c0,0.756-0.197,1.369-0.591,1.838s-0.967,0.768-1.719,0.895
		c0.305,0.184,0.538,0.369,0.697,0.557c0.324,0.383,0.608,0.809,0.854,1.278l1.436,2.728H55.4l-1.096-2.084
		c-0.425-0.815-0.745-1.364-0.961-1.647c-0.216-0.283-0.426-0.474-0.628-0.572s-0.486-0.147-0.85-0.147h-1.256v4.45H49.521z
		 M50.608,25.095h2.338c0.51,0,0.898-0.062,1.162-0.185s0.474-0.317,0.629-0.581s0.232-0.572,0.232-0.923
		c0-0.506-0.148-0.903-0.444-1.193s-0.736-0.434-1.319-0.434h-2.598V25.095z"/>
	<path d="M57.287,27.063c0-1.253,0.263-2.199,0.79-2.837s1.193-0.957,2-0.957c0.793,0,1.456,0.319,1.989,0.957s0.8,1.559,0.8,2.762
		c0,1.303-0.262,2.274-0.786,2.912s-1.192,0.957-2.003,0.957c-0.797,0-1.462-0.32-1.993-0.96S57.287,28.312,57.287,27.063z
		 M58.319,27.06c0,0.94,0.171,1.639,0.513,2.098c0.342,0.459,0.766,0.688,1.271,0.688c0.474,0,0.881-0.231,1.22-0.695
		c0.339-0.463,0.509-1.16,0.509-2.091c0-0.936-0.171-1.632-0.513-2.091s-0.766-0.688-1.271-0.688c-0.479,0-0.886,0.23-1.224,0.691
		S58.319,26.129,58.319,27.06z"/>
	<path d="M65.152,30.693l-1.829-7.26h1.043l0.948,4.19l0.35,1.559l0.315-1.497l0.944-4.252h1.042l0.886,4.211l0.3,1.388l0.341-1.401
		l1.016-4.197h0.984l-1.858,7.26h-1.05l-0.95-4.348l-0.226-1.237l-1.203,5.585H65.152z"/>
	<path d="M71.95,28.52l1.005-0.191c0.059,0.513,0.221,0.894,0.484,1.144c0.264,0.249,0.614,0.374,1.05,0.374
		c0.436,0,0.774-0.108,1.013-0.325c0.238-0.216,0.358-0.491,0.358-0.824c0-0.287-0.103-0.51-0.308-0.67
		c-0.141-0.109-0.483-0.246-1.025-0.41c-0.784-0.242-1.308-0.447-1.572-0.615s-0.469-0.394-0.615-0.677s-0.219-0.604-0.219-0.964
		c0-0.62,0.198-1.124,0.595-1.511s0.946-0.581,1.647-0.581c0.442,0,0.831,0.08,1.166,0.239s0.591,0.374,0.769,0.643
		s0.301,0.654,0.369,1.155l-0.984,0.164c-0.091-0.793-0.522-1.189-1.292-1.189c-0.438,0-0.763,0.087-0.978,0.262
		s-0.321,0.398-0.321,0.67c0,0.268,0.103,0.479,0.308,0.633c0.124,0.091,0.488,0.236,1.096,0.436
		c0.835,0.265,1.375,0.477,1.621,0.634c0.245,0.158,0.436,0.372,0.572,0.644c0.136,0.272,0.204,0.595,0.204,0.969
		c0,0.694-0.22,1.255-0.66,1.685s-1.04,0.644-1.801,0.644C73.005,30.857,72.178,30.078,71.95,28.52z"/>
</g>
<rect x="18" y="36.847" fill="none" stroke="#000000" stroke-miterlimit="10" width="161.539" height="19.23"/>
<rect x="18" y="56.078" fill="none" stroke="#000000" stroke-miterlimit="10" width="161.539" height="19.23"/>
<rect x="18" y="75.308" fill="none" stroke="#000000" stroke-miterlimit="10" width="161.539" height="19.23"/>
<rect x="91.847" y="216.98" fill="none" stroke="#000000" stroke-miterlimit="10" width="87.385" height="19.23"/>
<rect x="91.847" y="236.211" fill="none" stroke="#000000" stroke-miterlimit="10" width="87.385" height="19.23"/>
<rect x="92.154" y="255.441" fill="none" stroke="#000000" stroke-miterlimit="10" width="87.385" height="19.23"/>
<rect x="92.154" y="216.98" fill="none" stroke="#BE1E2D" stroke-width="2" stroke-miterlimit="10" width="87.385" height="57.691"/>
<rect x="18" y="94.537" fill="none" stroke="#000000" stroke-miterlimit="10" width="161.539" height="19.231"/>
<rect x="18" y="113.768" fill="none" stroke="#000000" stroke-miterlimit="10" width="161.539" height="19.23"/>
<rect x="18" y="132.998" fill="none" stroke="#000000" stroke-miterlimit="10" width="161.539" height="19.23"/>
<rect x="18" y="216.981" fill="none" stroke="#000000" stroke-miterlimit="10" width="161.539" height="140.654"/>
<rect x="18" y="216.981" fill="none" stroke="#000000" stroke-miterlimit="10" width="74.153" height="57.69"/>
<rect x="18" y="274.671" fill="none" stroke="#000000" stroke-miterlimit="10" width="74.154" height="38.583"/>
<rect x="92.154" y="274.671" fill="none" stroke="#000000" stroke-miterlimit="10" width="87.385" height="19.23"/>
<rect x="92.154" y="293.901" fill="none" stroke="#000000" stroke-miterlimit="10" width="87.385" height="19.23"/>
<rect x="92.154" y="274.671" fill="none" stroke="#BE1E2D" stroke-width="2" stroke-miterlimit="10" width="87.385" height="38.583"/>
<g>
	<path d="M20.995,210.693v-8.839h-2.707v-1.183h6.515v1.183h-2.721v8.839H20.995z"/>
	<path d="M28.364,209.798c-0.337,0.351-0.688,0.615-1.053,0.793s-0.743,0.267-1.135,0.267c-0.62,0-1.114-0.187-1.483-0.561
		s-0.554-0.877-0.554-1.511c0-0.419,0.086-0.791,0.26-1.114s0.41-0.577,0.711-0.759s0.756-0.317,1.367-0.403
		c0.82-0.121,1.422-0.264,1.805-0.431l0.007-0.314c0-0.497-0.089-0.845-0.267-1.046c-0.25-0.292-0.636-0.438-1.155-0.438
		c-0.469,0-0.82,0.098-1.053,0.292c-0.232,0.195-0.403,0.56-0.513,1.096l-0.991-0.164c0.141-0.779,0.427-1.347,0.858-1.702
		s1.047-0.533,1.849-0.533c0.625,0,1.114,0.117,1.47,0.352s0.58,0.525,0.673,0.872s0.14,0.852,0.14,1.518v1.641
		c0,1.148,0.021,1.872,0.065,2.17s0.129,0.589,0.256,0.872h-1.053C28.464,210.443,28.396,210.144,28.364,209.798z M28.282,207.05
		c-0.369,0.182-0.918,0.337-1.647,0.465c-0.424,0.073-0.72,0.156-0.889,0.25s-0.3,0.226-0.393,0.396s-0.14,0.368-0.14,0.591
		c0,0.346,0.107,0.623,0.321,0.831s0.51,0.311,0.889,0.311c0.36,0,0.687-0.093,0.981-0.28s0.514-0.437,0.66-0.749
		s0.219-0.767,0.219-1.364V207.05z"/>
	<path d="M31.796,210.693h-0.937v-10.021h1.012v3.575c0.214-0.328,0.457-0.573,0.728-0.735s0.573-0.243,0.906-0.243
		c0.465,0,0.888,0.139,1.268,0.417s0.685,0.7,0.913,1.265s0.342,1.251,0.342,2.058c0,1.23-0.258,2.18-0.774,2.847
		c-0.516,0.667-1.118,1.001-1.808,1.001c-0.347,0-0.658-0.09-0.935-0.27c-0.276-0.18-0.515-0.448-0.715-0.803V210.693z
		 M31.781,207.009c0,0.752,0.068,1.315,0.206,1.688s0.332,0.659,0.583,0.854c0.251,0.196,0.53,0.294,0.836,0.294
		c0.416,0,0.785-0.233,1.106-0.701c0.322-0.467,0.483-1.166,0.483-2.095c0-0.953-0.155-1.652-0.466-2.099
		c-0.311-0.447-0.692-0.67-1.145-0.67c-0.416,0-0.787,0.233-1.113,0.701S31.781,206.125,31.781,207.009z"/>
	<path d="M37.224,210.693v-10.021h1.005v10.021H37.224z"/>
	<path d="M43.875,208.355l1.039,0.157c-0.173,0.775-0.486,1.359-0.94,1.753s-1.015,0.591-1.685,0.591
		c-0.843,0-1.525-0.32-2.047-0.96s-0.783-1.564-0.783-2.772c0-1.253,0.263-2.209,0.79-2.868s1.193-0.988,2-0.988
		c0.77,0,1.413,0.324,1.928,0.971s0.772,1.583,0.772,2.81l-0.007,0.328h-4.443c0.041,0.816,0.23,1.431,0.567,1.846
		s0.748,0.622,1.23,0.622C43.052,209.846,43.579,209.349,43.875,208.355z M40.56,206.366h3.322c-0.045-0.629-0.18-1.098-0.403-1.408
		c-0.324-0.451-0.736-0.677-1.237-0.677c-0.451,0-0.836,0.188-1.155,0.564S40.591,205.728,40.56,206.366z"/>
	<path d="M49.385,210.693v-7.26h0.909v1.101c0.232-0.51,0.445-0.849,0.639-1.015s0.411-0.25,0.653-0.25
		c0.337,0,0.681,0.132,1.032,0.396l-0.342,1.142c-0.25-0.178-0.495-0.267-0.731-0.267c-0.214,0-0.41,0.075-0.588,0.226
		s-0.303,0.36-0.376,0.629c-0.127,0.469-0.191,0.968-0.191,1.497v3.801H49.385z"/>
	<path d="M52.823,207.063c0-1.253,0.263-2.199,0.79-2.837s1.193-0.957,2-0.957c0.793,0,1.456,0.319,1.989,0.957s0.8,1.559,0.8,2.762
		c0,1.303-0.262,2.274-0.786,2.912s-1.192,0.957-2.003,0.957c-0.797,0-1.462-0.32-1.993-0.96S52.823,208.312,52.823,207.063z
		 M53.855,207.06c0,0.94,0.171,1.639,0.513,2.098c0.342,0.459,0.766,0.688,1.271,0.688c0.474,0,0.881-0.231,1.22-0.695
		c0.339-0.463,0.509-1.16,0.509-2.091c0-0.936-0.171-1.632-0.513-2.091s-0.766-0.688-1.271-0.688c-0.479,0-0.886,0.23-1.224,0.691
		S53.855,206.129,53.855,207.06z"/>
	<path d="M60.688,210.693l-1.829-7.26h1.043l0.948,4.19l0.35,1.559l0.315-1.497l0.944-4.252h1.042l0.886,4.211l0.3,1.388
		l0.341-1.401l1.016-4.197h0.984l-1.858,7.26h-1.05l-0.95-4.348l-0.226-1.237l-1.203,5.585H60.688z"/>
	<path d="M67.486,208.52l1.005-0.191c0.059,0.513,0.221,0.894,0.484,1.144c0.264,0.249,0.614,0.374,1.05,0.374
		c0.436,0,0.774-0.108,1.013-0.325c0.238-0.216,0.358-0.491,0.358-0.824c0-0.287-0.103-0.51-0.308-0.67
		c-0.141-0.109-0.483-0.246-1.025-0.41c-0.784-0.242-1.308-0.447-1.572-0.615s-0.469-0.394-0.615-0.677s-0.219-0.604-0.219-0.964
		c0-0.62,0.198-1.124,0.595-1.511s0.946-0.581,1.647-0.581c0.442,0,0.831,0.08,1.166,0.239s0.591,0.374,0.769,0.643
		s0.301,0.654,0.369,1.155l-0.984,0.164c-0.091-0.793-0.522-1.189-1.292-1.189c-0.438,0-0.763,0.087-0.978,0.262
		s-0.321,0.398-0.321,0.67c0,0.268,0.103,0.479,0.308,0.633c0.124,0.091,0.488,0.236,1.096,0.436
		c0.835,0.265,1.375,0.477,1.621,0.634c0.245,0.158,0.436,0.372,0.572,0.644c0.136,0.272,0.204,0.595,0.204,0.969
		c0,0.694-0.22,1.255-0.66,1.685s-1.04,0.644-1.801,0.644C68.542,210.857,67.714,210.078,67.486,208.52z"/>
	<path d="M77.908,210.693l-1.829-7.26h1.043l0.948,4.19l0.35,1.559l0.315-1.497l0.944-4.252h1.042l0.886,4.211l0.3,1.388
		l0.341-1.401l1.016-4.197h0.984l-1.858,7.26h-1.05l-0.95-4.348l-0.226-1.237l-1.203,5.585H77.908z"/>
	<path d="M85.096,202.087v-1.415h1.005v1.415H85.096z M85.096,210.693v-7.26h1.005v7.26H85.096z"/>
	<path d="M89.888,209.593l0.137,1.087c-0.278,0.073-0.528,0.109-0.752,0.109c-0.351,0-0.634-0.069-0.848-0.208
		s-0.361-0.329-0.44-0.571c-0.08-0.242-0.12-0.722-0.12-1.442v-4.177h-0.738v-0.957h0.738v-1.798l1.005-0.738v2.536h1.019v0.957
		h-1.019v4.245c0,0.392,0.029,0.645,0.089,0.759c0.087,0.164,0.248,0.246,0.485,0.246C89.558,209.641,89.705,209.625,89.888,209.593
		z"/>
	<path d="M90.838,210.693v-10.021h1.005v3.596c0.237-0.333,0.505-0.582,0.803-0.749c0.299-0.167,0.628-0.25,0.988-0.25
		c0.634,0,1.134,0.202,1.5,0.605c0.367,0.403,0.551,1.143,0.551,2.218v4.601H94.68v-4.601c0-0.629-0.111-1.08-0.335-1.354
		s-0.531-0.41-0.923-0.41c-0.438,0-0.81,0.175-1.118,0.526c-0.307,0.351-0.461,0.973-0.461,1.866v3.972H90.838z"/>
	<path d="M97.223,202.087v-1.415h1.005v1.415H97.223z M97.223,210.693v-7.26h1.005v7.26H97.223z"/>
	<path d="M99.772,210.693v-7.26h0.909v1.025c0.219-0.398,0.485-0.696,0.802-0.894s0.679-0.296,1.089-0.296
		c0.318,0,0.612,0.062,0.883,0.188c0.271,0.125,0.489,0.29,0.655,0.492s0.29,0.466,0.372,0.79s0.123,0.82,0.123,1.49v4.464h-1.005
		v-4.421c0-0.534-0.046-0.924-0.137-1.17c-0.091-0.247-0.233-0.437-0.427-0.572c-0.194-0.134-0.419-0.202-0.674-0.202
		c-0.483,0-0.868,0.18-1.155,0.541s-0.431,0.979-0.431,1.854v3.969H99.772z"/>
	<path d="M111.4,210.693v-8.839h-2.707v-1.183h6.515v1.183h-2.721v8.839H111.4z"/>
	<path d="M118.77,209.798c-0.337,0.351-0.688,0.615-1.053,0.793s-0.743,0.267-1.135,0.267c-0.62,0-1.114-0.187-1.483-0.561
		s-0.554-0.877-0.554-1.511c0-0.419,0.087-0.791,0.26-1.114s0.41-0.577,0.711-0.759s0.757-0.317,1.367-0.403
		c0.82-0.121,1.422-0.264,1.805-0.431l0.007-0.314c0-0.497-0.089-0.845-0.267-1.046c-0.251-0.292-0.636-0.438-1.155-0.438
		c-0.47,0-0.82,0.098-1.053,0.292c-0.232,0.195-0.403,0.56-0.513,1.096l-0.991-0.164c0.142-0.779,0.427-1.347,0.858-1.702
		c0.43-0.355,1.047-0.533,1.849-0.533c0.624,0,1.114,0.117,1.47,0.352s0.58,0.525,0.674,0.872c0.093,0.346,0.14,0.852,0.14,1.518
		v1.641c0,1.148,0.021,1.872,0.065,2.17c0.043,0.298,0.128,0.589,0.256,0.872h-1.053C118.87,210.443,118.802,210.144,118.77,209.798
		z M118.688,207.05c-0.369,0.182-0.918,0.337-1.647,0.465c-0.424,0.073-0.72,0.156-0.889,0.25s-0.3,0.226-0.394,0.396
		c-0.093,0.171-0.14,0.368-0.14,0.591c0,0.346,0.107,0.623,0.321,0.831s0.511,0.311,0.889,0.311c0.36,0,0.688-0.093,0.98-0.28
		c0.295-0.187,0.515-0.437,0.66-0.749s0.219-0.767,0.219-1.364V207.05z"/>
	<path d="M122.201,210.693h-0.937v-10.021h1.012v3.575c0.214-0.328,0.457-0.573,0.728-0.735c0.271-0.162,0.573-0.243,0.906-0.243
		c0.465,0,0.888,0.139,1.268,0.417c0.381,0.278,0.686,0.7,0.913,1.265s0.342,1.251,0.342,2.058c0,1.23-0.258,2.18-0.773,2.847
		s-1.118,1.001-1.808,1.001c-0.348,0-0.659-0.09-0.935-0.27c-0.276-0.18-0.515-0.448-0.716-0.803V210.693z M122.187,207.009
		c0,0.752,0.068,1.315,0.205,1.688s0.331,0.659,0.583,0.854c0.251,0.196,0.529,0.294,0.836,0.294c0.416,0,0.784-0.233,1.106-0.701
		s0.483-1.166,0.483-2.095c0-0.953-0.155-1.652-0.466-2.099s-0.692-0.67-1.145-0.67c-0.416,0-0.787,0.233-1.114,0.701
		C122.35,205.449,122.187,206.125,122.187,207.009z"/>
	<path d="M127.629,210.693v-10.021h1.005v10.021H127.629z"/>
	<path d="M134.28,208.355l1.039,0.157c-0.173,0.775-0.486,1.359-0.939,1.753c-0.454,0.394-1.016,0.591-1.686,0.591
		c-0.843,0-1.525-0.32-2.047-0.96c-0.522-0.64-0.783-1.564-0.783-2.772c0-1.253,0.264-2.209,0.789-2.868
		c0.527-0.659,1.193-0.988,2-0.988c0.771,0,1.413,0.324,1.928,0.971s0.772,1.583,0.772,2.81l-0.007,0.328h-4.443
		c0.041,0.816,0.23,1.431,0.567,1.846s0.747,0.622,1.23,0.622C133.458,209.846,133.984,209.349,134.28,208.355z M130.965,206.366
		h3.322c-0.046-0.629-0.18-1.098-0.403-1.408c-0.323-0.451-0.736-0.677-1.237-0.677c-0.451,0-0.836,0.188-1.155,0.564
		S130.997,205.728,130.965,206.366z"/>
</g>
<rect x="18" y="313.193" fill="none" stroke="#000000" stroke-miterlimit="10" width="74.154" height="38.582"/>
<rect x="92.154" y="313.192" fill="none" stroke="#000000" stroke-miterlimit="10" width="87.385" height="19.23"/>
<rect x="92.154" y="332.423" fill="none" stroke="#000000" stroke-miterlimit="10" width="87.385" height="19.23"/>
<rect x="92.154" y="313.192" fill="none" stroke="#BE1E2D" stroke-width="2" stroke-miterlimit="10" width="87.385" height="38.583"/>
<rect x="18" y="382.348" fill="none" stroke="#000000" stroke-miterlimit="10" width="161.539" height="140.653"/>
<g>
	<path d="M24.256,366.038h1.087v5.79c0,0.971-0.095,1.768-0.283,2.389c-0.189,0.623-0.533,1.113-1.031,1.474s-1.133,0.54-1.902,0.54
		c-1.083,0-1.895-0.324-2.435-0.971s-0.809-1.791-0.809-3.432v-5.79h1.087v5.783c0,0.907,0.071,1.563,0.212,1.969
		s0.373,0.714,0.694,0.927c0.321,0.211,0.712,0.317,1.172,0.317c0.775,0,1.336-0.219,1.685-0.656s0.523-1.29,0.523-2.557V366.038z"
		/>
	<path d="M27.106,376.06v-10.021h1.087v8.839h4.047v1.183H27.106z"/>
	<path d="M35.44,376.224l2.381-10.356h0.821l-2.388,10.356H35.44z"/>
	<path d="M42.651,376.06v-10.021h1.087v8.839h4.047v1.183H42.651z"/>
	<path d="M49.31,376.06v-10.021h1.087v10.021H49.31z"/>
</g>
<rect x="24.001" y="401.577" fill="none" stroke="#1C75BC" stroke-width="2" stroke-miterlimit="10" width="27.77" height="19.23"/>
<rect x="51.769" y="420.686" fill="none" stroke="#1C75BC" stroke-width="2" stroke-miterlimit="10" width="27.77" height="19.23"/>
<rect x="51.771" y="439.915" fill="none" stroke="#1C75BC" stroke-width="2" stroke-miterlimit="10" width="27.77" height="19.23"/>
<rect x="51.77" y="459.146" fill="none" stroke="#1C75BC" stroke-width="2" stroke-miterlimit="10" width="27.77" height="19.23"/>
<rect x="24.001" y="478.375" fill="none" stroke="#1C75BC" stroke-width="2" stroke-miterlimit="10" width="27.77" height="19.23"/>
<rect x="51.77" y="497.605" fill="none" stroke="#1C75BC" stroke-width="2" stroke-miterlimit="10" width="27.77" height="19.23"/>
<g>
	<g>
		<polyline fill="none" stroke="#BE1E2D" stroke-width="2" stroke-miterlimit="10" points="179.232,515.896 179.232,516.896 
			178.232,516.896 		"/>
		
			<line fill="none" stroke="#BE1E2D" stroke-width="2" stroke-miterlimit="10" stroke-dasharray="1.99,1.99" x1="176.242" y1="516.896" x2="25.996" y2="516.896"/>
		<polyline fill="none" stroke="#BE1E2D" stroke-width="2" stroke-miterlimit="10" points="25,516.896 24,516.896 24,515.896 		"/>
		
			<line fill="none" stroke="#BE1E2D" stroke-width="2" stroke-miterlimit="10" stroke-dasharray="1.9254,1.9254" x1="24" y1="513.971" x2="24" y2="480.276"/>
		<polyline fill="none" stroke="#BE1E2D" stroke-width="2" stroke-miterlimit="10" points="24,479.313 24,478.313 25,478.313 		"/>
		
			<line fill="none" stroke="#BE1E2D" stroke-width="2" stroke-miterlimit="10" stroke-dasharray="1.99,1.99" x1="26.991" y1="478.313" x2="177.237" y2="478.313"/>
		<polyline fill="none" stroke="#BE1E2D" stroke-width="2" stroke-miterlimit="10" points="178.232,478.313 179.232,478.313 
			179.232,479.313 		"/>
		
			<line fill="none" stroke="#BE1E2D" stroke-width="2" stroke-miterlimit="10" stroke-dasharray="1.9254,1.9254" x1="179.232" y1="481.239" x2="179.232" y2="514.934"/>
	</g>
</g>
<g>
	<g>
		<polyline fill="none" stroke="#BE1E2D" stroke-width="2" stroke-miterlimit="10" points="179.232,477.376 179.232,478.376 
			178.232,478.376 		"/>
		
			<line fill="none" stroke="#BE1E2D" stroke-width="2" stroke-miterlimit="10" stroke-dasharray="1.99,1.99" x1="176.242" y1="478.376" x2="25.996" y2="478.376"/>
		<polyline fill="none" stroke="#BE1E2D" stroke-width="2" stroke-miterlimit="10" points="25,478.376 24,478.376 24,477.376 		"/>
		
			<line fill="none" stroke="#BE1E2D" stroke-width="2" stroke-miterlimit="10" stroke-dasharray="2.0266,2.0266" x1="24" y1="475.35" x2="24" y2="403.407"/>
		<polyline fill="none" stroke="#BE1E2D" stroke-width="2" stroke-miterlimit="10" points="24,402.394 24,401.394 25,401.394 		"/>
		
			<line fill="none" stroke="#BE1E2D" stroke-width="2" stroke-miterlimit="10" stroke-dasharray="1.99,1.99" x1="26.991" y1="401.394" x2="177.237" y2="401.394"/>
		<polyline fill="none" stroke="#BE1E2D" stroke-width="2" stroke-miterlimit="10" points="178.232,401.394 179.232,401.394 
			179.232,402.394 		"/>
		
			<line fill="none" stroke="#BE1E2D" stroke-width="2" stroke-miterlimit="10" stroke-dasharray="2.0266,2.0266" x1="179.232" y1="404.42" x2="179.232" y2="476.362"/>
	</g>
</g>
<rect x="200" y="382.348" fill="none" stroke="#000000" stroke-miterlimit="10" width="161.539" height="140.653"/>
<g>
	<path d="M200.862,376.06v-10.021h2.837c0.702,0,1.235,0.062,1.6,0.185c0.479,0.16,0.893,0.451,1.244,0.875s0.625,0.958,0.82,1.604
		c0.196,0.645,0.294,1.408,0.294,2.293c0,1.135-0.167,2.098-0.499,2.889c-0.333,0.79-0.76,1.351-1.282,1.682
		c-0.522,0.33-1.204,0.495-2.047,0.495H200.862z M201.949,374.877h1.75c0.707,0,1.242-0.115,1.606-0.346
		c0.365-0.229,0.645-0.6,0.841-1.11c0.26-0.679,0.39-1.493,0.39-2.44c0-1.016-0.138-1.814-0.414-2.396
		c-0.276-0.58-0.63-0.969-1.063-1.165c-0.292-0.132-0.754-0.198-1.388-0.198h-1.723V374.877z"/>
	<path d="M209.38,376.06v-10.021h1.087v10.021H209.38z"/>
	<path d="M214.724,376.06l-3.19-10.021h1.176l2.143,7.28c0.164,0.564,0.308,1.111,0.431,1.641c0.128-0.551,0.274-1.098,0.438-1.641
		l2.225-7.28h1.107l-3.212,10.021H214.724z"/>
	<path d="M222.321,376.224l2.381-10.356h0.821l-2.388,10.356H222.321z"/>
	<path d="M229.231,372.833l1.025-0.109c0.055,0.552,0.179,0.981,0.373,1.288c0.194,0.309,0.471,0.555,0.831,0.742
		s0.766,0.28,1.217,0.28c0.647,0,1.149-0.158,1.507-0.474c0.358-0.316,0.537-0.727,0.537-1.232c0-0.295-0.065-0.553-0.195-0.773
		s-0.326-0.401-0.588-0.543c-0.262-0.141-0.828-0.34-1.699-0.598c-0.775-0.229-1.326-0.461-1.654-0.693s-0.583-0.527-0.766-0.885
		c-0.182-0.358-0.273-0.763-0.273-1.214c0-0.812,0.262-1.474,0.786-1.989s1.23-0.772,2.119-0.772c0.611,0,1.145,0.12,1.603,0.362
		s0.813,0.588,1.066,1.039s0.389,0.982,0.407,1.593l-1.046,0.096c-0.055-0.651-0.25-1.135-0.584-1.449s-0.806-0.472-1.412-0.472
		c-0.615,0-1.084,0.138-1.408,0.414c-0.324,0.275-0.485,0.632-0.485,1.069c0,0.405,0.119,0.72,0.355,0.942
		c0.237,0.225,0.77,0.45,1.599,0.679c0.811,0.225,1.38,0.419,1.708,0.584c0.501,0.257,0.88,0.593,1.135,1.009
		c0.256,0.417,0.384,0.914,0.384,1.492c0,0.574-0.134,1.096-0.403,1.567s-0.635,0.829-1.097,1.075s-1.02,0.369-1.671,0.369
		c-1.016,0-1.826-0.305-2.43-0.916S229.254,373.877,229.231,372.833z"/>
	<path d="M237.25,376.06v-10.021h3.097c0.729,0,1.267,0.063,1.613,0.191c0.474,0.173,0.852,0.495,1.135,0.964
		s0.424,1.046,0.424,1.729c0,0.902-0.23,1.638-0.69,2.208s-1.255,0.854-2.386,0.854h-2.105v4.074H237.25z M238.337,370.803h2.126
		c0.67,0,1.16-0.151,1.47-0.455c0.31-0.303,0.465-0.76,0.465-1.37c0-0.396-0.076-0.735-0.229-1.019s-0.337-0.477-0.554-0.581
		s-0.607-0.157-1.172-0.157h-2.105V370.803z"/>
	<path d="M243.17,376.06l3.169-10.021h1.163l3.365,10.021h-1.244l-0.956-3.035h-3.457l-0.894,3.035H243.17z M245.528,371.944h2.799
		l-0.854-2.775c-0.265-0.853-0.458-1.545-0.581-2.078c-0.106,0.643-0.256,1.28-0.45,1.914L245.528,371.944z"/>
	<path d="M251.694,376.06v-10.021h1.114l4.32,7.884v-7.884h1.039v10.021h-1.114l-4.313-7.886v7.886H251.694z"/>
</g>
<rect x="213.103" y="395.769" fill="none" stroke="#1C75BC" stroke-width="2" stroke-miterlimit="10" width="27.77" height="19.23"/>
<g>
	<g>
		<polyline fill="none" stroke="#BE1E2D" stroke-width="2" stroke-miterlimit="10" points="361.232,515.896 361.232,516.896 
			360.232,516.896 		"/>
		
			<line fill="none" stroke="#BE1E2D" stroke-width="2" stroke-miterlimit="10" stroke-dasharray="1.99,1.99" x1="358.242" y1="516.896" x2="207.996" y2="516.896"/>
		<polyline fill="none" stroke="#BE1E2D" stroke-width="2" stroke-miterlimit="10" points="207,516.896 206,516.896 206,515.896 		
			"/>
		
			<line fill="none" stroke="#BE1E2D" stroke-width="2" stroke-miterlimit="10" stroke-dasharray="1.9984,1.9984" x1="206" y1="513.898" x2="206" y2="390.998"/>
		<polyline fill="none" stroke="#BE1E2D" stroke-width="2" stroke-miterlimit="10" points="206,389.999 206,388.999 207,388.999 		
			"/>
		
			<line fill="none" stroke="#BE1E2D" stroke-width="2" stroke-miterlimit="10" stroke-dasharray="1.99,1.99" x1="208.991" y1="388.999" x2="359.237" y2="388.999"/>
		<polyline fill="none" stroke="#BE1E2D" stroke-width="2" stroke-miterlimit="10" points="360.232,388.999 361.232,388.999 
			361.232,389.999 		"/>
		
			<line fill="none" stroke="#BE1E2D" stroke-width="2" stroke-miterlimit="10" stroke-dasharray="1.9984,1.9984" x1="361.232" y1="391.997" x2="361.232" y2="514.897"/>
	</g>
</g>
<g>
	<g>
		<polyline fill="none" stroke="#BE1E2D" stroke-width="2" stroke-miterlimit="10" points="353.334,506.221 353.334,507.221 
			352.334,507.221 		"/>
		
			<line fill="none" stroke="#BE1E2D" stroke-width="2" stroke-miterlimit="10" stroke-dasharray="2.0034,2.0034" x1="350.331" y1="507.221" x2="215.104" y2="507.221"/>
		<polyline fill="none" stroke="#BE1E2D" stroke-width="2" stroke-miterlimit="10" points="214.102,507.221 213.102,507.221 
			213.102,506.221 		"/>
		
			<line fill="none" stroke="#BE1E2D" stroke-width="2" stroke-miterlimit="10" stroke-dasharray="1.966,1.966" x1="213.102" y1="504.255" x2="213.102" y2="422.668"/>
		<polyline fill="none" stroke="#BE1E2D" stroke-width="2" stroke-miterlimit="10" points="213.102,421.685 213.102,420.685 
			214.102,420.685 		"/>
		
			<line fill="none" stroke="#BE1E2D" stroke-width="2" stroke-miterlimit="10" stroke-dasharray="2.0034,2.0034" x1="216.105" y1="420.685" x2="351.333" y2="420.685"/>
		<polyline fill="none" stroke="#BE1E2D" stroke-width="2" stroke-miterlimit="10" points="352.334,420.685 353.334,420.685 
			353.334,421.685 		"/>
		
			<line fill="none" stroke="#BE1E2D" stroke-width="2" stroke-miterlimit="10" stroke-dasharray="1.966,1.966" x1="353.334" y1="423.65" x2="353.334" y2="505.237"/>
	</g>
</g>
<rect x="240.872" y="395.769" fill="none" stroke="#1C75BC" stroke-width="2" stroke-miterlimit="10" width="27.77" height="19.23"/>
<rect x="220.309" y="425.769" fill="none" stroke="#1C75BC" stroke-width="2" stroke-miterlimit="10" width="27.77" height="19.23"/>
<rect x="248.077" y="425.769" fill="none" stroke="#1C75BC" stroke-width="2" stroke-miterlimit="10" width="27.77" height="19.23"/>
<rect x="275.846" y="425.769" fill="none" stroke="#1C75BC" stroke-width="2" stroke-miterlimit="10" width="27.77" height="19.23"/>
<g>
	<g>
		<polyline fill="none" stroke="#BE1E2D" stroke-width="2" stroke-miterlimit="10" points="345.271,496.605 345.271,497.605 
			344.271,497.605 		"/>
		
			<line fill="none" stroke="#BE1E2D" stroke-width="2" stroke-miterlimit="10" stroke-dasharray="2.0271,2.0271" x1="342.244" y1="497.605" x2="221.63" y2="497.605"/>
		<polyline fill="none" stroke="#BE1E2D" stroke-width="2" stroke-miterlimit="10" points="220.616,497.605 219.616,497.605 
			219.616,496.605 		"/>
		
			<line fill="none" stroke="#BE1E2D" stroke-width="2" stroke-miterlimit="10" stroke-dasharray="2.0033,2.0033" x1="219.616" y1="494.603" x2="219.616" y2="451.532"/>
		<polyline fill="none" stroke="#BE1E2D" stroke-width="2" stroke-miterlimit="10" points="219.616,450.53 219.616,449.53 
			220.616,449.53 		"/>
		
			<line fill="none" stroke="#BE1E2D" stroke-width="2" stroke-miterlimit="10" stroke-dasharray="2.0271,2.0271" x1="222.644" y1="449.53" x2="343.258" y2="449.53"/>
		<polyline fill="none" stroke="#BE1E2D" stroke-width="2" stroke-miterlimit="10" points="344.271,449.53 345.271,449.53 
			345.271,450.53 		"/>
		
			<line fill="none" stroke="#BE1E2D" stroke-width="2" stroke-miterlimit="10" stroke-dasharray="2.0033,2.0033" x1="345.271" y1="452.533" x2="345.271" y2="495.604"/>
	</g>
</g>
<rect x="224.308" y="454.338" fill="none" stroke="#1C75BC" stroke-width="2" stroke-miterlimit="10" width="27.77" height="19.23"/>
<rect x="252.076" y="454.338" fill="none" stroke="#1C75BC" stroke-width="2" stroke-miterlimit="10" width="27.77" height="19.23"/>
<rect x="91.847" y="548.001" fill="none" stroke="#1C75BC" stroke-width="2" stroke-miterlimit="10" width="27.77" height="19.23"/>
<rect x="92.154" y="548.001" fill="none" stroke="#BE1E2D" stroke-width="2" stroke-miterlimit="10" width="87.385" height="57.691"/>
<rect x="18" y="548.002" fill="none" stroke="#000000" stroke-miterlimit="10" width="161.539" height="140.653"/>
<rect x="18" y="548.002" fill="none" stroke="#000000" stroke-miterlimit="10" width="74.154" height="57.689"/>
<rect x="18" y="605.692" fill="none" stroke="#000000" stroke-miterlimit="10" width="74.154" height="38.46"/>
<rect x="92.215" y="605.691" fill="none" stroke="#BE1E2D" stroke-width="2" stroke-miterlimit="10" width="87.324" height="38.339"/>
<g>
	<path d="M18.855,541.714v-10.021h1.634l1.951,7.096l0.39,1.483c0.096-0.369,0.242-0.904,0.438-1.606l1.971-6.973h1.463v10.021
		h-1.046v-8.382l-2.396,8.382h-0.977l-2.382-8.525v8.525H18.855z"/>
	<path d="M28.31,533.107v-1.415h1.005v1.415H28.31z M28.31,541.714v-7.26h1.005v7.26H28.31z"/>
	<path d="M30.203,541.714l2.172-3.771l-2.001-3.489h1.26l0.906,1.698c0.169,0.314,0.308,0.587,0.418,0.816
		c0.171-0.305,0.324-0.568,0.458-0.791l1.001-1.724h1.2l-2.054,3.409l2.211,3.851h-1.237l-1.225-2.259l-0.317-0.609l-1.568,2.868
		H30.203z"/>
	<path d="M40.669,539.376l1.039,0.157c-0.173,0.775-0.486,1.359-0.94,1.754c-0.454,0.394-1.015,0.591-1.685,0.591
		c-0.843,0-1.525-0.32-2.047-0.96c-0.522-0.641-0.783-1.564-0.783-2.772c0-1.253,0.263-2.209,0.79-2.868
		c0.526-0.658,1.193-0.987,2-0.987c0.77,0,1.413,0.323,1.928,0.971s0.772,1.583,0.772,2.81l-0.007,0.328h-4.443
		c0.041,0.816,0.23,1.432,0.567,1.846s0.748,0.622,1.23,0.622C39.846,540.866,40.373,540.369,40.669,539.376z M37.354,537.387h3.322
		c-0.045-0.629-0.18-1.098-0.403-1.408c-0.324-0.451-0.736-0.677-1.237-0.677c-0.451,0-0.836,0.188-1.155,0.563
		C37.561,536.242,37.385,536.748,37.354,537.387z"/>
	<path d="M46.842,541.714v-0.916c-0.182,0.351-0.417,0.618-0.704,0.804c-0.287,0.184-0.597,0.276-0.93,0.276
		c-0.702,0-1.309-0.331-1.822-0.995c-0.513-0.662-0.769-1.596-0.769-2.799c0-0.824,0.114-1.524,0.341-2.099s0.531-1.001,0.911-1.278
		s0.802-0.417,1.266-0.417c0.333,0,0.641,0.088,0.925,0.263c0.285,0.176,0.52,0.421,0.707,0.735v-3.596h1.019v10.021H46.842z
		 M43.649,538.091c0,0.938,0.163,1.636,0.489,2.092c0.326,0.456,0.706,0.684,1.139,0.684c0.429,0,0.8-0.219,1.115-0.656
		c0.314-0.438,0.472-1.099,0.472-1.982c0-1.017-0.157-1.758-0.472-2.226c-0.315-0.467-0.712-0.7-1.19-0.7
		c-0.424,0-0.789,0.225-1.095,0.673C43.802,536.424,43.649,537.129,43.649,538.091z"/>
</g>
<rect x="91.848" y="567.231" fill="none" stroke="#1C75BC" stroke-width="2" stroke-miterlimit="10" width="27.77" height="19.23"/>
<rect x="91.848" y="586.34" fill="none" stroke="#1C75BC" stroke-width="2" stroke-miterlimit="10" width="27.77" height="19.23"/>
<rect x="119.617" y="548.001" fill="none" stroke="#1C75BC" stroke-width="2" stroke-miterlimit="10" width="27.77" height="19.23"/>
<rect x="119.617" y="586.34" fill="none" stroke="#1C75BC" stroke-width="2" stroke-miterlimit="10" width="27.77" height="19.23"/>
<rect x="147.387" y="586.339" fill="none" stroke="#1C75BC" stroke-width="2" stroke-miterlimit="10" width="27.77" height="19.23"/>
<rect x="91.847" y="605.569" fill="none" stroke="#1C75BC" stroke-width="2" stroke-miterlimit="10" width="33.282" height="19.23"/>
<rect x="91.847" y="624.8" fill="none" stroke="#1C75BC" stroke-width="2" stroke-miterlimit="10" width="33.282" height="19.23"/>
<rect x="125.129" y="605.569" fill="none" stroke="#1C75BC" stroke-width="2" stroke-miterlimit="10" width="33.281" height="19.23"/>
<rect x="18" y="644.152" fill="none" stroke="#000000" stroke-miterlimit="10" width="74.154" height="38.46"/>
<rect x="92.154" y="644.151" fill="none" stroke="#BE1E2D" stroke-width="2" stroke-miterlimit="10" width="87.385" height="38.339"/>
<rect x="91.848" y="644.029" fill="none" stroke="#1C75BC" stroke-width="2" stroke-miterlimit="10" width="39.744" height="19.23"/>
<rect x="91.848" y="663.26" fill="none" stroke="#1C75BC" stroke-width="2" stroke-miterlimit="10" width="39.744" height="19.23"/>
<rect x="131.591" y="663.26" fill="none" stroke="#1C75BC" stroke-width="2" stroke-miterlimit="10" width="39.743" height="19.23"/>
<g>
	<path d="M198.042,210.223l0.081-8.838l-2.707-0.025l0.011-1.183l6.514,0.06l-0.011,1.183l-2.72-0.025l-0.081,8.838L198.042,210.223
		z"/>
	<path d="M205.419,209.395c-0.341,0.348-0.694,0.609-1.06,0.783c-0.367,0.174-0.745,0.26-1.137,0.256
		c-0.62-0.006-1.113-0.197-1.479-0.574s-0.545-0.883-0.54-1.516c0.003-0.419,0.093-0.79,0.27-1.112
		c0.176-0.322,0.415-0.573,0.718-0.752c0.302-0.18,0.759-0.31,1.371-0.391c0.822-0.113,1.424-0.251,1.809-0.414l0.009-0.314
		c0.005-0.497-0.081-0.846-0.257-1.048c-0.248-0.293-0.632-0.443-1.151-0.448c-0.469-0.004-0.821,0.09-1.055,0.282
		s-0.409,0.556-0.523,1.09l-0.99-0.173c0.148-0.778,0.44-1.342,0.874-1.694c0.434-0.352,1.052-0.523,1.854-0.516
		c0.625,0.005,1.113,0.127,1.467,0.365c0.353,0.238,0.575,0.531,0.665,0.878c0.09,0.347,0.132,0.853,0.126,1.519l-0.015,1.641
		c-0.011,1.148,0.004,1.872,0.045,2.171s0.124,0.59,0.249,0.874l-1.053-0.01C205.513,210.041,205.447,209.742,205.419,209.395z
		 M205.362,206.646c-0.371,0.179-0.921,0.329-1.652,0.45c-0.424,0.069-0.721,0.15-0.891,0.242s-0.302,0.223-0.397,0.393
		c-0.095,0.17-0.144,0.367-0.146,0.59c-0.003,0.346,0.101,0.624,0.314,0.833c0.212,0.209,0.507,0.315,0.886,0.319
		c0.36,0.003,0.688-0.087,0.983-0.271c0.296-0.185,0.518-0.432,0.667-0.743c0.149-0.311,0.226-0.765,0.231-1.362L205.362,206.646z"
		/>
	<path d="M208.842,210.322l-0.937-0.009l0.092-10.021l1.012,0.009l-0.033,3.575c0.217-0.326,0.462-0.569,0.735-0.728
		s0.575-0.237,0.908-0.234c0.465,0.004,0.886,0.147,1.264,0.429c0.377,0.281,0.678,0.706,0.901,1.272
		c0.223,0.567,0.33,1.254,0.323,2.061c-0.011,1.23-0.278,2.177-0.8,2.84c-0.521,0.663-1.126,0.991-1.816,0.985
		c-0.347-0.003-0.658-0.096-0.932-0.279s-0.511-0.453-0.708-0.81L208.842,210.322z M208.861,206.637
		c-0.007,0.752,0.056,1.316,0.19,1.69c0.134,0.375,0.326,0.662,0.575,0.86c0.25,0.198,0.528,0.299,0.834,0.302
		c0.416,0.004,0.786-0.226,1.112-0.69c0.327-0.464,0.494-1.161,0.502-2.091c0.009-0.953-0.14-1.653-0.446-2.103
		c-0.307-0.449-0.686-0.676-1.139-0.68c-0.416-0.003-0.789,0.227-1.12,0.69S208.869,205.753,208.861,206.637z"/>
	<path d="M214.27,210.372l0.092-10.021l1.005,0.009l-0.092,10.021L214.27,210.372z"/>
	<path d="M220.942,208.095l1.038,0.167c-0.181,0.773-0.499,1.354-0.956,1.745c-0.458,0.39-1.021,0.582-1.69,0.576
		c-0.843-0.008-1.522-0.334-2.039-0.979c-0.516-0.645-0.769-1.572-0.757-2.779c0.011-1.253,0.283-2.207,0.816-2.86
		c0.532-0.654,1.202-0.977,2.008-0.97c0.77,0.007,1.41,0.337,1.919,0.989c0.509,0.651,0.758,1.59,0.747,2.816l-0.01,0.328
		l-4.443-0.041c0.034,0.816,0.217,1.434,0.55,1.851c0.334,0.417,0.742,0.629,1.225,0.633
		C220.106,209.578,220.637,209.086,220.942,208.095z M217.645,206.076l3.322,0.03c-0.04-0.629-0.17-1.1-0.39-1.412
		c-0.32-0.454-0.73-0.683-1.231-0.688c-0.451-0.004-0.838,0.18-1.16,0.553C217.863,204.932,217.683,205.438,217.645,206.076z"/>
	<path d="M230.351,207.86l0.99,0.167c-0.122,0.865-0.414,1.523-0.876,1.975c-0.462,0.451-1.014,0.674-1.657,0.668
		c-0.779-0.007-1.418-0.333-1.916-0.978c-0.498-0.645-0.741-1.594-0.729-2.847c0.012-1.262,0.274-2.207,0.789-2.833
		c0.514-0.626,1.169-0.936,1.967-0.929c0.615,0.006,1.132,0.202,1.55,0.589c0.417,0.386,0.683,0.963,0.794,1.729l-0.979,0.168
		c-0.091-0.49-0.254-0.859-0.489-1.103c-0.234-0.245-0.519-0.369-0.851-0.372c-0.497-0.004-0.91,0.211-1.24,0.648
		c-0.33,0.437-0.499,1.133-0.508,2.09c-0.009,0.989,0.14,1.706,0.448,2.151s0.706,0.67,1.194,0.674
		c0.383,0.003,0.711-0.141,0.985-0.432C230.096,208.935,230.272,208.479,230.351,207.86z"/>
	<path d="M231.823,206.903c0.012-1.253,0.283-2.196,0.815-2.83s1.202-0.946,2.008-0.938c0.793,0.007,1.453,0.333,1.98,0.976
		c0.527,0.643,0.786,1.565,0.774,2.769c-0.012,1.303-0.283,2.271-0.812,2.905s-1.201,0.946-2.012,0.938
		c-0.797-0.007-1.458-0.333-1.983-0.979S231.811,208.152,231.823,206.903z M232.855,206.909c-0.009,0.94,0.156,1.641,0.494,2.103
		c0.337,0.462,0.759,0.695,1.265,0.7c0.474,0.004,0.883-0.224,1.227-0.684c0.343-0.46,0.52-1.156,0.528-2.086
		c0.009-0.936-0.156-1.634-0.494-2.096c-0.337-0.461-0.759-0.694-1.265-0.699c-0.478-0.004-0.888,0.222-1.229,0.68
		C233.039,205.284,232.864,205.979,232.855,206.909z"/>
	<path d="M238.522,210.595l0.092-10.021l1.005,0.009l-0.092,10.021L238.522,210.595z"/>
	<path d="M245.003,210.654l0.01-1.066c-0.236,0.408-0.513,0.713-0.829,0.916s-0.672,0.301-1.069,0.298
		c-0.469-0.004-0.87-0.135-1.2-0.391c-0.331-0.256-0.55-0.578-0.658-0.966c-0.108-0.388-0.159-0.918-0.153-1.588l0.041-4.498
		l1.005,0.009l-0.037,4.026c-0.007,0.748,0.026,1.248,0.099,1.501c0.073,0.254,0.21,0.458,0.412,0.612
		c0.201,0.155,0.432,0.233,0.691,0.235c0.483,0.005,0.881-0.19,1.195-0.583c0.267-0.339,0.405-0.965,0.414-1.876l0.036-3.889
		l1.011,0.009l-0.066,7.259L245.003,210.654z"/>
	<path d="M247.498,210.677l0.066-7.259l0.902,0.008l-0.009,1.012c0.204-0.374,0.463-0.662,0.779-0.863
		c0.315-0.201,0.66-0.3,1.033-0.296c0.418,0.004,0.771,0.115,1.058,0.333c0.287,0.218,0.49,0.534,0.609,0.947
		c0.242-0.419,0.518-0.733,0.828-0.941s0.653-0.311,1.028-0.307c0.572,0.005,1.021,0.203,1.346,0.593
		c0.326,0.39,0.485,1.011,0.477,1.863l-0.045,4.983l-1.005-0.009l0.042-4.578c0.005-0.52-0.029-0.889-0.103-1.106
		s-0.195-0.386-0.363-0.506c-0.169-0.12-0.358-0.181-0.569-0.183c-0.435-0.004-0.792,0.165-1.069,0.506
		c-0.278,0.342-0.421,0.883-0.428,1.622l-0.039,4.222l-1.005-0.009l0.043-4.722c0.005-0.603-0.083-1.028-0.266-1.275
		c-0.182-0.248-0.435-0.374-0.759-0.376c-0.46-0.004-0.825,0.179-1.095,0.547c-0.27,0.37-0.41,1.047-0.418,2.032l-0.035,3.771
		L247.498,210.677z"/>
	<path d="M257.054,210.765l0.066-7.259l0.909,0.008l-0.009,1.025c0.222-0.396,0.492-0.692,0.81-0.886
		c0.318-0.194,0.682-0.29,1.091-0.286c0.318,0.003,0.613,0.068,0.882,0.196c0.269,0.128,0.486,0.294,0.651,0.498
		c0.164,0.204,0.286,0.468,0.364,0.792c0.079,0.324,0.115,0.821,0.109,1.491l-0.041,4.464l-1.005-0.009l0.041-4.421
		c0.005-0.534-0.037-0.924-0.126-1.171c-0.089-0.248-0.229-0.439-0.422-0.575c-0.193-0.136-0.417-0.206-0.672-0.208
		c-0.483-0.004-0.87,0.172-1.16,0.529c-0.291,0.358-0.439,0.975-0.448,1.851l-0.036,3.969L257.054,210.765z"/>
	<path d="M263.069,208.646l1.006-0.182c0.054,0.513,0.212,0.896,0.474,1.148c0.261,0.251,0.61,0.38,1.046,0.384
		s0.775-0.102,1.016-0.315c0.241-0.214,0.363-0.488,0.366-0.82c0.003-0.287-0.098-0.511-0.301-0.673
		c-0.141-0.111-0.481-0.25-1.021-0.419c-0.782-0.249-1.304-0.459-1.567-0.63s-0.465-0.398-0.608-0.683
		c-0.144-0.284-0.213-0.606-0.21-0.966c0.006-0.62,0.208-1.121,0.608-1.505c0.4-0.383,0.951-0.572,1.653-0.566
		c0.442,0.004,0.831,0.087,1.163,0.25c0.334,0.163,0.588,0.379,0.764,0.65s0.294,0.656,0.358,1.158l-0.986,0.155
		c-0.083-0.793-0.511-1.194-1.281-1.201c-0.438-0.004-0.764,0.081-0.98,0.253c-0.215,0.172-0.325,0.395-0.327,0.667
		c-0.002,0.268,0.098,0.479,0.303,0.636c0.122,0.092,0.486,0.241,1.092,0.446c0.833,0.273,1.371,0.489,1.614,0.648
		c0.244,0.16,0.432,0.376,0.566,0.649c0.133,0.273,0.198,0.597,0.195,0.971c-0.006,0.694-0.231,1.253-0.674,1.679
		c-0.444,0.425-1.047,0.634-1.808,0.627C264.102,210.994,263.282,210.207,263.069,208.646z"/>
	<path d="M273.47,210.916l-1.763-7.276l1.043,0.009l0.91,4.199l0.336,1.562l0.328-1.494l0.983-4.243l1.042,0.009l0.846,4.219
		l0.288,1.391l0.354-1.398l1.054-4.188l0.984,0.009l-1.925,7.242l-1.051-0.01l-0.91-4.356l-0.215-1.239l-1.254,5.574L273.47,210.916
		z"/>
	<path d="M280.658,210.982l0.066-7.259l1.005,0.009l-0.066,7.259L280.658,210.982z M280.737,202.376l0.013-1.415l1.005,0.009
		l-0.013,1.415L280.737,202.376z"/>
	<path d="M285.459,209.926l0.127,1.088c-0.279,0.07-0.529,0.104-0.753,0.103c-0.351-0.003-0.633-0.075-0.846-0.216
		c-0.213-0.141-0.358-0.333-0.435-0.575c-0.078-0.243-0.114-0.723-0.107-1.443l0.038-4.176l-0.738-0.007l0.009-0.957l0.738,0.007
		l0.017-1.798l1.012-0.729l-0.023,2.536l1.019,0.009l-0.009,0.957l-1.019-0.009l-0.039,4.245c-0.003,0.392,0.023,0.645,0.082,0.759
		c0.085,0.165,0.246,0.249,0.483,0.25C285.129,209.971,285.277,209.956,285.459,209.926z"/>
	<path d="M286.399,211.035l0.092-10.021l1.005,0.009l-0.033,3.596c0.24-0.331,0.51-0.578,0.81-0.741
		c0.3-0.164,0.63-0.244,0.99-0.241c0.634,0.006,1.132,0.212,1.495,0.619c0.363,0.407,0.541,1.147,0.53,2.223l-0.042,4.601
		l-1.005-0.009l0.042-4.601c0.006-0.629-0.101-1.081-0.322-1.356s-0.528-0.415-0.919-0.418c-0.438-0.004-0.811,0.168-1.123,0.516
		c-0.31,0.348-0.47,0.969-0.479,1.862l-0.036,3.972L286.399,211.035z"/>
	<path d="M292.784,211.094l0.066-7.259l1.005,0.009l-0.066,7.259L292.784,211.094z M292.863,202.488l0.013-1.415l1.005,0.009
		l-0.013,1.415L292.863,202.488z"/>
	<path d="M295.333,211.117l0.066-7.259l0.909,0.008l-0.009,1.025c0.223-0.396,0.492-0.692,0.81-0.886s0.681-0.29,1.091-0.286
		c0.318,0.003,0.612,0.068,0.881,0.196c0.27,0.128,0.486,0.294,0.651,0.498c0.164,0.205,0.286,0.469,0.365,0.792
		c0.079,0.325,0.115,0.822,0.109,1.492l-0.041,4.464l-1.005-0.009l0.041-4.421c0.005-0.534-0.038-0.924-0.126-1.171
		s-0.229-0.439-0.421-0.575c-0.193-0.136-0.417-0.206-0.672-0.208c-0.483-0.005-0.87,0.172-1.16,0.529
		c-0.29,0.357-0.439,0.975-0.448,1.851l-0.036,3.969L295.333,211.117z"/>
	<path d="M306.961,211.224l0.081-8.838l-2.707-0.025l0.011-1.183l6.514,0.06l-0.011,1.183l-2.72-0.025l-0.081,8.838L306.961,211.224
		z"/>
	<path d="M314.338,210.396c-0.34,0.348-0.694,0.609-1.06,0.784c-0.366,0.174-0.746,0.26-1.137,0.256
		c-0.62-0.005-1.113-0.197-1.479-0.574s-0.545-0.882-0.54-1.516c0.003-0.419,0.094-0.79,0.27-1.112
		c0.176-0.322,0.415-0.573,0.718-0.752c0.302-0.179,0.76-0.31,1.371-0.391c0.822-0.113,1.424-0.251,1.809-0.414l0.009-0.314
		c0.005-0.497-0.081-0.846-0.257-1.048c-0.248-0.293-0.632-0.443-1.151-0.448c-0.47-0.004-0.821,0.09-1.055,0.282
		c-0.234,0.192-0.409,0.556-0.523,1.091l-0.99-0.173c0.149-0.778,0.439-1.342,0.874-1.694c0.433-0.352,1.052-0.523,1.854-0.516
		c0.624,0.006,1.113,0.127,1.467,0.366c0.353,0.238,0.575,0.531,0.666,0.877c0.09,0.347,0.132,0.853,0.126,1.519l-0.015,1.641
		c-0.011,1.148,0.004,1.872,0.045,2.171c0.04,0.299,0.123,0.59,0.248,0.874l-1.053-0.01
		C314.432,211.042,314.367,210.743,314.338,210.396z M314.281,207.647c-0.371,0.179-0.921,0.329-1.652,0.45
		c-0.424,0.069-0.721,0.149-0.891,0.241s-0.302,0.223-0.397,0.393c-0.094,0.17-0.143,0.367-0.145,0.59
		c-0.003,0.346,0.102,0.624,0.314,0.833c0.212,0.209,0.508,0.316,0.886,0.319c0.36,0.003,0.688-0.087,0.983-0.271
		c0.296-0.184,0.519-0.432,0.667-0.742c0.148-0.311,0.226-0.765,0.231-1.362L314.281,207.647z"/>
	<path d="M317.761,211.323l-0.937-0.009l0.092-10.021l1.012,0.009l-0.033,3.575c0.217-0.326,0.462-0.569,0.734-0.728
		c0.273-0.159,0.575-0.237,0.908-0.234c0.465,0.004,0.887,0.147,1.264,0.429c0.378,0.281,0.679,0.706,0.901,1.272
		c0.222,0.567,0.33,1.254,0.323,2.061c-0.011,1.23-0.278,2.177-0.8,2.84c-0.521,0.663-1.127,0.991-1.816,0.985
		c-0.348-0.003-0.659-0.096-0.932-0.279c-0.275-0.183-0.511-0.452-0.708-0.81L317.761,211.323z M317.78,207.639
		c-0.007,0.752,0.056,1.315,0.189,1.69c0.133,0.375,0.325,0.662,0.575,0.86c0.249,0.198,0.527,0.299,0.833,0.301
		c0.416,0.004,0.786-0.226,1.113-0.69s0.494-1.161,0.502-2.091c0.009-0.953-0.14-1.653-0.446-2.103
		c-0.307-0.449-0.687-0.676-1.139-0.68c-0.416-0.004-0.789,0.226-1.121,0.69C317.958,206.081,317.789,206.754,317.78,207.639z"/>
	<path d="M323.189,211.373l0.092-10.021l1.005,0.009l-0.092,10.021L323.189,211.373z"/>
	<path d="M329.862,209.096l1.038,0.167c-0.18,0.773-0.499,1.355-0.956,1.745c-0.458,0.39-1.021,0.582-1.691,0.576
		c-0.843-0.008-1.522-0.334-2.038-0.979c-0.517-0.645-0.769-1.572-0.758-2.779c0.011-1.253,0.284-2.207,0.815-2.86
		c0.533-0.654,1.202-0.977,2.009-0.969c0.771,0.007,1.41,0.336,1.919,0.988c0.509,0.651,0.758,1.59,0.747,2.816l-0.01,0.328
		l-4.443-0.041c0.034,0.816,0.217,1.433,0.55,1.851c0.333,0.417,0.742,0.629,1.225,0.633
		C329.026,210.579,329.557,210.087,329.862,209.096z M326.564,207.077l3.322,0.031c-0.04-0.629-0.169-1.1-0.39-1.412
		c-0.319-0.454-0.73-0.683-1.231-0.688c-0.451-0.004-0.837,0.18-1.16,0.553C326.782,205.934,326.603,206.439,326.564,207.077z"/>
</g>
<rect x="200.001" y="36.902" fill="none" stroke="#000000" stroke-miterlimit="10" width="51.277" height="140.654"/>
<g>
	<path d="M202.996,30.749V21.91h-2.707v-1.183h6.515v1.183h-2.721v8.839H202.996z"/>
	<path d="M210.365,29.853c-0.337,0.351-0.688,0.615-1.053,0.793s-0.743,0.267-1.135,0.267c-0.62,0-1.114-0.187-1.483-0.561
		s-0.554-0.877-0.554-1.511c0-0.419,0.086-0.791,0.26-1.114s0.41-0.577,0.711-0.759s0.756-0.317,1.367-0.403
		c0.82-0.121,1.422-0.264,1.805-0.431l0.007-0.314c0-0.497-0.089-0.845-0.267-1.046c-0.25-0.292-0.636-0.438-1.155-0.438
		c-0.469,0-0.82,0.098-1.053,0.292c-0.232,0.195-0.403,0.56-0.513,1.096l-0.991-0.164c0.141-0.779,0.427-1.347,0.858-1.702
		s1.047-0.533,1.849-0.533c0.625,0,1.114,0.117,1.47,0.352s0.58,0.525,0.673,0.872s0.14,0.852,0.14,1.518v1.641
		c0,1.148,0.021,1.872,0.065,2.17s0.129,0.589,0.256,0.872h-1.053C210.465,30.498,210.396,30.199,210.365,29.853z M210.283,27.105
		c-0.369,0.182-0.918,0.337-1.647,0.465c-0.424,0.073-0.72,0.156-0.889,0.25s-0.3,0.226-0.393,0.396s-0.14,0.368-0.14,0.591
		c0,0.346,0.107,0.623,0.321,0.831s0.51,0.311,0.889,0.311c0.36,0,0.687-0.093,0.981-0.28s0.514-0.437,0.66-0.749
		s0.219-0.767,0.219-1.364V27.105z"/>
	<path d="M213.796,30.749h-0.937V20.727h1.012v3.575c0.214-0.328,0.457-0.573,0.728-0.735s0.573-0.243,0.906-0.243
		c0.465,0,0.888,0.139,1.268,0.417s0.685,0.7,0.913,1.265s0.342,1.251,0.342,2.058c0,1.23-0.258,2.18-0.774,2.847
		c-0.516,0.667-1.118,1.001-1.808,1.001c-0.347,0-0.658-0.09-0.935-0.27c-0.276-0.18-0.515-0.448-0.715-0.803V30.749z
		 M213.781,27.064c0,0.752,0.068,1.315,0.206,1.688s0.332,0.659,0.583,0.854c0.251,0.196,0.53,0.294,0.836,0.294
		c0.416,0,0.785-0.233,1.106-0.701c0.322-0.467,0.483-1.166,0.483-2.095c0-0.953-0.155-1.652-0.466-2.099
		c-0.311-0.447-0.692-0.67-1.145-0.67c-0.416,0-0.787,0.233-1.113,0.701S213.781,26.18,213.781,27.064z"/>
	<path d="M219.224,30.749V20.727h1.005v10.021H219.224z"/>
	<path d="M225.875,28.411l1.039,0.157c-0.173,0.775-0.486,1.359-0.94,1.753s-1.015,0.591-1.685,0.591
		c-0.843,0-1.525-0.32-2.047-0.96s-0.783-1.564-0.783-2.772c0-1.253,0.263-2.209,0.79-2.868s1.193-0.988,2-0.988
		c0.77,0,1.413,0.324,1.928,0.971s0.772,1.583,0.772,2.81l-0.007,0.328h-4.443c0.041,0.816,0.23,1.431,0.567,1.846
		s0.748,0.622,1.23,0.622C225.053,29.901,225.579,29.404,225.875,28.411z M222.56,26.421h3.322c-0.045-0.629-0.18-1.098-0.403-1.408
		c-0.324-0.451-0.736-0.677-1.237-0.677c-0.451,0-0.836,0.188-1.155,0.564S222.592,25.783,222.56,26.421z"/>
	<path d="M237.36,27.235l1.094,0.335c-0.242,1.125-0.664,1.965-1.268,2.519s-1.339,0.831-2.205,0.831
		c-0.761,0-1.412-0.186-1.952-0.558c-0.54-0.372-0.982-0.968-1.326-1.789s-0.516-1.79-0.516-2.907c0-1.104,0.172-2.037,0.517-2.801
		c0.344-0.764,0.811-1.341,1.399-1.73c0.588-0.39,1.245-0.585,1.971-0.585c0.793,0,1.476,0.247,2.046,0.74
		c0.57,0.493,0.969,1.217,1.197,2.172l-1.066,0.308c-0.365-1.39-1.098-2.085-2.197-2.085c-0.548,0-1.022,0.14-1.424,0.421
		c-0.402,0.28-0.722,0.717-0.962,1.31c-0.24,0.593-0.359,1.343-0.359,2.251c0,1.373,0.242,2.403,0.725,3.089
		c0.483,0.687,1.125,1.03,1.928,1.03c0.592,0,1.104-0.211,1.535-0.632S237.214,28.092,237.36,27.235z"/>
	<path d="M239.288,27.119c0-1.253,0.263-2.199,0.79-2.837s1.193-0.957,2-0.957c0.793,0,1.456,0.319,1.989,0.957s0.8,1.559,0.8,2.762
		c0,1.303-0.262,2.274-0.786,2.912s-1.192,0.957-2.003,0.957c-0.797,0-1.462-0.32-1.993-0.96S239.288,28.367,239.288,27.119z
		 M240.32,27.115c0,0.94,0.171,1.639,0.513,2.098c0.342,0.459,0.766,0.688,1.271,0.688c0.474,0,0.881-0.231,1.22-0.695
		c0.339-0.463,0.509-1.16,0.509-2.091c0-0.936-0.171-1.632-0.513-2.091s-0.766-0.688-1.271-0.688c-0.479,0-0.886,0.23-1.224,0.691
		S240.32,26.185,240.32,27.115z"/>
	<path d="M246.021,30.749V20.727h1.005v10.021H246.021z"/>
	<path d="M252.501,30.749v-1.066c-0.232,0.41-0.506,0.718-0.82,0.923s-0.67,0.308-1.066,0.308c-0.469,0-0.871-0.126-1.203-0.379
		s-0.555-0.573-0.667-0.96s-0.167-0.916-0.167-1.586v-4.498h1.005v4.026c0,0.748,0.038,1.248,0.113,1.5s0.214,0.456,0.417,0.608
		s0.434,0.229,0.694,0.229c0.483,0,0.879-0.198,1.189-0.595c0.264-0.342,0.396-0.968,0.396-1.88v-3.89h1.012v7.26H252.501z"/>
	<path d="M254.997,30.749v-7.26h0.902V24.5c0.2-0.376,0.457-0.666,0.771-0.87c0.314-0.204,0.658-0.306,1.031-0.306
		c0.418,0,0.772,0.107,1.061,0.323c0.289,0.215,0.495,0.529,0.618,0.941c0.238-0.421,0.511-0.737,0.82-0.948s0.65-0.316,1.025-0.316
		c0.572,0,1.022,0.194,1.351,0.581c0.33,0.387,0.494,1.007,0.494,1.859v4.983h-1.005V26.17c0-0.52-0.038-0.889-0.113-1.105
		c-0.076-0.217-0.198-0.385-0.368-0.503c-0.17-0.118-0.36-0.178-0.571-0.178c-0.435,0-0.79,0.172-1.065,0.517
		c-0.275,0.345-0.413,0.886-0.413,1.625v4.222h-1.005v-4.722c0-0.603-0.092-1.027-0.277-1.273c-0.185-0.247-0.438-0.37-0.762-0.37
		c-0.46,0-0.824,0.186-1.09,0.558c-0.267,0.372-0.4,1.051-0.4,2.036v3.771H254.997z"/>
	<path d="M264.553,30.749v-7.26h0.909v1.025c0.218-0.398,0.486-0.696,0.802-0.894c0.316-0.197,0.679-0.296,1.088-0.296
		c0.318,0,0.613,0.062,0.884,0.188s0.489,0.29,0.655,0.492s0.29,0.466,0.372,0.79c0.082,0.324,0.123,0.82,0.123,1.49v4.464h-1.005
		v-4.421c0-0.534-0.045-0.924-0.137-1.17c-0.091-0.247-0.233-0.437-0.427-0.572c-0.194-0.134-0.418-0.202-0.673-0.202
		c-0.483,0-0.868,0.18-1.155,0.541s-0.431,0.979-0.431,1.854v3.969H264.553z"/>
	<path d="M270.548,28.575l1.005-0.191c0.059,0.513,0.221,0.894,0.484,1.144c0.264,0.249,0.614,0.374,1.05,0.374
		c0.436,0,0.774-0.108,1.013-0.325c0.238-0.216,0.358-0.491,0.358-0.824c0-0.287-0.103-0.51-0.308-0.67
		c-0.141-0.109-0.483-0.246-1.025-0.41c-0.784-0.242-1.308-0.447-1.572-0.615s-0.469-0.394-0.615-0.677s-0.219-0.604-0.219-0.964
		c0-0.62,0.198-1.124,0.595-1.511s0.946-0.581,1.647-0.581c0.442,0,0.831,0.08,1.166,0.239s0.591,0.374,0.769,0.643
		s0.301,0.654,0.369,1.155l-0.984,0.164c-0.091-0.793-0.522-1.189-1.292-1.189c-0.438,0-0.763,0.087-0.978,0.262
		s-0.321,0.398-0.321,0.67c0,0.268,0.103,0.479,0.308,0.633c0.124,0.091,0.488,0.236,1.096,0.436
		c0.835,0.265,1.375,0.477,1.621,0.634c0.245,0.158,0.436,0.372,0.572,0.644c0.136,0.272,0.204,0.595,0.204,0.969
		c0,0.694-0.22,1.255-0.66,1.685s-1.04,0.644-1.801,0.644C271.604,30.913,270.776,30.133,270.548,28.575z"/>
</g>
<rect x="200.001" y="36.902" fill="none" stroke="#000000" stroke-miterlimit="10" width="51.277" height="19.23"/>
<rect x="200.001" y="56.133" fill="none" stroke="#000000" stroke-miterlimit="10" width="51.277" height="19.23"/>
<rect x="200.001" y="75.363" fill="none" stroke="#000000" stroke-miterlimit="10" width="51.277" height="19.23"/>
<rect x="200.001" y="94.592" fill="none" stroke="#000000" stroke-miterlimit="10" width="51.277" height="19.231"/>
<rect x="200.001" y="113.823" fill="none" stroke="#000000" stroke-miterlimit="10" width="51.277" height="19.23"/>
<rect x="200.001" y="133.053" fill="none" stroke="#000000" stroke-miterlimit="10" width="51.277" height="19.23"/>
<rect x="251.278" y="36.902" fill="none" stroke="#000000" stroke-miterlimit="10" width="33.209" height="19.23"/>
<rect x="251.278" y="56.133" fill="none" stroke="#000000" stroke-miterlimit="10" width="33.209" height="19.23"/>
<rect x="251.278" y="75.363" fill="none" stroke="#000000" stroke-miterlimit="10" width="33.209" height="19.23"/>
<rect x="251.278" y="94.592" fill="none" stroke="#000000" stroke-miterlimit="10" width="33.209" height="19.231"/>
<rect x="251.278" y="113.823" fill="none" stroke="#000000" stroke-miterlimit="10" width="33.209" height="19.23"/>
<rect x="251.278" y="133.053" fill="none" stroke="#000000" stroke-miterlimit="10" width="33.209" height="19.23"/>
<rect x="284.487" y="36.902" fill="none" stroke="#000000" stroke-miterlimit="10" width="33.209" height="19.23"/>
<rect x="284.487" y="75.363" fill="none" stroke="#000000" stroke-miterlimit="10" width="33.209" height="19.23"/>
<rect x="284.487" y="94.592" fill="none" stroke="#000000" stroke-miterlimit="10" width="33.209" height="19.231"/>
<rect x="284.487" y="133.053" fill="none" stroke="#000000" stroke-miterlimit="10" width="33.209" height="19.23"/>
<rect x="317.673" y="36.902" fill="none" stroke="#000000" stroke-miterlimit="10" width="33.209" height="19.23"/>
<rect x="317.673" y="75.363" fill="none" stroke="#000000" stroke-miterlimit="10" width="33.209" height="19.23"/>
<rect x="287.192" y="216.919" fill="none" stroke="#BE1E2D" stroke-width="2" stroke-miterlimit="10" width="73" height="19.292"/>
<rect x="287.192" y="236.18" fill="none" stroke="#BE1E2D" stroke-width="2" stroke-miterlimit="10" width="73" height="19.292"/>
<rect x="287.192" y="255.349" fill="none" stroke="#BE1E2D" stroke-width="2" stroke-miterlimit="10" width="73" height="19.292"/>
<rect x="287.192" y="274.61" fill="none" stroke="#BE1E2D" stroke-width="2" stroke-miterlimit="10" width="73" height="19.292"/>
<rect x="287.192" y="293.932" fill="none" stroke="#BE1E2D" stroke-width="2" stroke-miterlimit="10" width="73" height="19.292"/>
<rect x="287.192" y="313.193" fill="none" stroke="#BE1E2D" stroke-width="2" stroke-miterlimit="10" width="73" height="19.291"/>
<rect x="199.075" y="216.981" fill="none" stroke="#000000" stroke-miterlimit="10" width="161.539" height="140.654"/>
<rect x="287.192" y="216.92" fill="none" stroke="#000000" stroke-miterlimit="10" width="33.209" height="19.23"/>
<rect x="287.192" y="236.15" fill="none" stroke="#000000" stroke-miterlimit="10" width="29.04" height="19.23"/>
<rect x="287.192" y="255.379" fill="none" stroke="#000000" stroke-miterlimit="10" width="35.404" height="19.231"/>
<rect x="287.192" y="274.61" fill="none" stroke="#000000" stroke-miterlimit="10" width="43.56" height="19.23"/>
<rect x="287.192" y="293.84" fill="none" stroke="#000000" stroke-miterlimit="10" width="33.209" height="19.23"/>
<rect x="316.232" y="236.15" fill="none" stroke="#000000" stroke-miterlimit="10" width="29.04" height="19.23"/>
<rect x="322.596" y="255.379" fill="none" stroke="#000000" stroke-miterlimit="10" width="35.404" height="19.231"/>
<rect x="320.401" y="293.84" fill="none" stroke="#000000" stroke-miterlimit="10" width="33.209" height="19.23"/>
<rect x="198.565" y="216.981" fill="none" stroke="#000000" stroke-miterlimit="10" width="88.627" height="19.23"/>
<rect x="198.565" y="236.211" fill="none" stroke="#000000" stroke-miterlimit="10" width="88.627" height="19.23"/>
<rect x="198.565" y="255.441" fill="none" stroke="#000000" stroke-miterlimit="10" width="88.627" height="19.23"/>
<rect x="198.565" y="274.671" fill="none" stroke="#000000" stroke-miterlimit="10" width="88.627" height="19.231"/>
<rect x="198.565" y="293.902" fill="none" stroke="#000000" stroke-miterlimit="10" width="88.627" height="19.231"/>
<rect x="198.565" y="313.131" fill="none" stroke="#000000" stroke-miterlimit="10" width="88.627" height="19.23"/>
<g>
	<path d="M72.413,53l3.622-11.453h1.329L81.21,53h-1.422l-1.093-3.469h-3.951L73.724,53H72.413z M75.107,48.297h3.199l-0.976-3.172
		c-0.302-0.974-0.523-1.766-0.664-2.375c-0.121,0.734-0.293,1.464-0.515,2.188L75.107,48.297z"/>
	<path d="M86.046,53H84.89v-8.961c-0.266,0.312-0.623,0.632-1.07,0.957c-0.448,0.326-0.859,0.572-1.234,0.738v-1.359
		c0.635-0.364,1.196-0.81,1.684-1.336c0.487-0.526,0.829-1.039,1.027-1.539h0.75V53z"/>
	<path d="M72.413,72.2l3.622-11.453h1.329L81.21,72.2h-1.422l-1.093-3.469h-3.951L73.724,72.2H72.413z M75.107,67.497h3.199
		l-0.976-3.172c-0.302-0.974-0.523-1.766-0.664-2.375c-0.121,0.734-0.293,1.464-0.515,2.188L75.107,67.497z"/>
	<path d="M87.78,70.849V72.2h-6.211c-0.016-0.547,0.149-1.16,0.496-1.837c0.346-0.678,0.98-1.478,1.902-2.4
		c1.078-1.074,1.784-1.904,2.117-2.491c0.333-0.586,0.5-1.132,0.5-1.638c0-0.584-0.171-1.06-0.512-1.427
		c-0.341-0.368-0.762-0.551-1.262-0.551c-0.537,0-0.977,0.199-1.32,0.596c-0.344,0.397-0.516,0.967-0.516,1.709l-1.188-0.148
		c0.083-1.099,0.395-1.926,0.934-2.48S83.97,60.7,84.851,60.7c0.958,0,1.684,0.323,2.176,0.968s0.738,1.379,0.738,2.202
		c0,0.729-0.193,1.428-0.578,2.097c-0.386,0.669-1.117,1.562-2.195,2.677c-0.688,0.704-1.132,1.184-1.332,1.439
		c-0.201,0.255-0.363,0.511-0.488,0.766H87.78z"/>
	<path d="M72.413,91.4l3.622-11.453h1.329L81.21,91.4h-1.422l-1.093-3.469h-3.951L73.724,91.4H72.413z M75.107,86.697h3.199
		l-0.976-3.172c-0.302-0.974-0.523-1.766-0.664-2.375c-0.121,0.734-0.293,1.464-0.515,2.188L75.107,86.697z"/>
	<path d="M81.702,88.369l1.148-0.188c0.24,1.505,0.848,2.258,1.824,2.258c0.527,0,0.983-0.223,1.37-0.669
		c0.386-0.446,0.579-1.024,0.579-1.733c0-0.668-0.177-1.205-0.531-1.612c-0.354-0.407-0.789-0.61-1.305-0.61
		c-0.219,0-0.49,0.052-0.812,0.156l0.133-1.234l0.18,0.016c0.57,0,1.033-0.174,1.388-0.522c0.355-0.348,0.533-0.813,0.533-1.396
		c0-0.535-0.149-0.965-0.446-1.29c-0.298-0.325-0.661-0.487-1.089-0.487c-0.443,0-0.818,0.171-1.124,0.512
		c-0.306,0.341-0.5,0.858-0.583,1.551l-1.148-0.25c0.146-0.979,0.474-1.719,0.984-2.219c0.51-0.5,1.127-0.75,1.852-0.75
		c0.76,0,1.406,0.281,1.938,0.843s0.797,1.27,0.797,2.124c0,0.521-0.113,0.981-0.338,1.382c-0.226,0.401-0.54,0.716-0.944,0.945
		c0.374,0.104,0.682,0.276,0.926,0.515s0.441,0.56,0.591,0.96s0.226,0.848,0.226,1.343c0,1.051-0.31,1.912-0.93,2.581
		c-0.62,0.668-1.362,1.003-2.227,1.003c-0.802,0-1.482-0.292-2.039-0.875C82.098,90.137,81.78,89.353,81.702,88.369z"/>
	<path d="M73.397,110.6V99.147h3.527c0.715,0,1.28,0.11,1.697,0.332c0.417,0.221,0.759,0.566,1.025,1.034
		c0.266,0.469,0.399,0.986,0.399,1.554c0,0.525-0.115,0.999-0.344,1.421c-0.229,0.421-0.552,0.76-0.969,1.015
		c0.544,0.198,0.974,0.536,1.287,1.013c0.314,0.477,0.471,1.064,0.471,1.763c0,0.693-0.142,1.302-0.426,1.825
		c-0.284,0.524-0.663,0.904-1.137,1.142c-0.474,0.237-1.125,0.355-1.953,0.355H73.397z M74.64,103.959h2.035
		c0.532,0,0.91-0.036,1.135-0.109c0.324-0.109,0.573-0.293,0.748-0.551s0.262-0.608,0.262-1.051c0-0.411-0.08-0.754-0.239-1.027
		s-0.371-0.462-0.634-0.566c-0.264-0.104-0.737-0.156-1.421-0.156H74.64V103.959z M74.64,109.249h2.34
		c0.517,0,0.897-0.047,1.143-0.141c0.355-0.135,0.625-0.358,0.81-0.668c0.185-0.31,0.278-0.699,0.278-1.168
		c0-0.432-0.089-0.798-0.266-1.098c-0.177-0.299-0.416-0.518-0.716-0.656c-0.3-0.138-0.771-0.207-1.412-0.207H74.64V109.249z"/>
	<path d="M86.046,110.6H84.89v-8.961c-0.266,0.312-0.623,0.632-1.07,0.957c-0.448,0.326-0.859,0.572-1.234,0.738v-1.359
		c0.635-0.364,1.196-0.81,1.684-1.336c0.487-0.526,0.829-1.039,1.027-1.539h0.75V110.6z"/>
	<path d="M73.397,129.8v-11.453h3.527c0.715,0,1.28,0.11,1.697,0.332c0.417,0.221,0.759,0.566,1.025,1.034
		c0.266,0.469,0.399,0.986,0.399,1.554c0,0.525-0.115,0.999-0.344,1.421c-0.229,0.421-0.552,0.76-0.969,1.015
		c0.544,0.198,0.974,0.536,1.287,1.013c0.314,0.477,0.471,1.064,0.471,1.763c0,0.693-0.142,1.302-0.426,1.825
		c-0.284,0.524-0.663,0.904-1.137,1.142c-0.474,0.237-1.125,0.355-1.953,0.355H73.397z M74.64,123.159h2.035
		c0.532,0,0.91-0.036,1.135-0.109c0.324-0.109,0.573-0.293,0.748-0.551s0.262-0.608,0.262-1.051c0-0.411-0.08-0.754-0.239-1.027
		s-0.371-0.462-0.634-0.566c-0.264-0.104-0.737-0.156-1.421-0.156H74.64V123.159z M74.64,128.448h2.34
		c0.517,0,0.897-0.047,1.143-0.141c0.355-0.135,0.625-0.358,0.81-0.668c0.185-0.31,0.278-0.699,0.278-1.168
		c0-0.432-0.089-0.798-0.266-1.098c-0.177-0.299-0.416-0.518-0.716-0.656c-0.3-0.138-0.771-0.207-1.412-0.207H74.64V128.448z"/>
	<path d="M87.78,128.448v1.352h-6.211c-0.016-0.547,0.149-1.16,0.496-1.837c0.346-0.678,0.98-1.478,1.902-2.4
		c1.078-1.074,1.784-1.904,2.117-2.491c0.333-0.586,0.5-1.132,0.5-1.638c0-0.584-0.171-1.06-0.512-1.427
		c-0.341-0.368-0.762-0.551-1.262-0.551c-0.537,0-0.977,0.199-1.32,0.596c-0.344,0.397-0.516,0.967-0.516,1.709l-1.188-0.148
		c0.083-1.099,0.395-1.926,0.934-2.48s1.249-0.832,2.129-0.832c0.958,0,1.684,0.323,2.176,0.968s0.738,1.379,0.738,2.202
		c0,0.729-0.193,1.428-0.578,2.097c-0.386,0.669-1.117,1.562-2.195,2.677c-0.688,0.704-1.132,1.184-1.332,1.439
		c-0.201,0.255-0.363,0.511-0.488,0.766H87.78z"/>
</g>
<rect x="18.31" y="36.847" fill="none" stroke="#000000" stroke-miterlimit="10" width="51.277" height="19.23"/>
<rect x="18.31" y="56.077" fill="none" stroke="#000000" stroke-miterlimit="10" width="51.277" height="19.23"/>
<rect x="18.31" y="75.307" fill="none" stroke="#000000" stroke-miterlimit="10" width="51.277" height="19.23"/>
<rect x="18.31" y="94.537" fill="none" stroke="#000000" stroke-miterlimit="10" width="51.277" height="19.231"/>
<rect x="18.31" y="113.768" fill="none" stroke="#000000" stroke-miterlimit="10" width="51.277" height="19.23"/>
<rect x="18.31" y="132.997" fill="none" stroke="#000000" stroke-miterlimit="10" width="51.277" height="19.23"/>
<path d="M261.194,52.067l3.622-11.453h1.328l3.847,11.453h-1.422l-1.093-3.469h-3.951l-1.021,3.469H261.194z M263.888,47.364h3.199
	l-0.976-3.172c-0.302-0.974-0.523-1.766-0.664-2.375c-0.121,0.734-0.293,1.464-0.515,2.188L263.888,47.364z"/>
<path d="M274.827,52.114h-1.156v-8.961c-0.266,0.312-0.622,0.632-1.07,0.957c-0.448,0.326-0.859,0.572-1.234,0.738v-1.359
	c0.636-0.364,1.196-0.81,1.684-1.336c0.487-0.526,0.829-1.039,1.027-1.539h0.75V52.114z"/>
<path d="M291.087,52.067l3.622-11.453h1.328l3.847,11.453h-1.422l-1.093-3.469h-3.951l-1.021,3.469H291.087z M293.782,47.364h3.199
	l-0.976-3.172c-0.302-0.974-0.523-1.766-0.664-2.375c-0.121,0.734-0.293,1.464-0.515,2.188L293.782,47.364z"/>
<path d="M306.455,50.763v1.352h-6.211c-0.016-0.547,0.149-1.16,0.496-1.837c0.347-0.678,0.98-1.478,1.902-2.4
	c1.078-1.074,1.784-1.904,2.117-2.491c0.333-0.586,0.5-1.132,0.5-1.638c0-0.584-0.171-1.06-0.512-1.427s-0.762-0.551-1.262-0.551
	c-0.536,0-0.977,0.199-1.32,0.596c-0.344,0.397-0.516,0.967-0.516,1.709l-1.188-0.148c0.083-1.099,0.395-1.926,0.934-2.48
	s1.249-0.832,2.129-0.832c0.958,0,1.684,0.323,2.176,0.968s0.738,1.379,0.738,2.202c0,0.729-0.192,1.428-0.578,2.097
	s-1.117,1.562-2.195,2.677c-0.688,0.704-1.132,1.184-1.332,1.439s-0.363,0.511-0.488,0.766H306.455z"/>
<path d="M326.559,52.067l3.622-11.453h1.328l3.847,11.453h-1.422l-1.093-3.469h-3.951l-1.021,3.469H326.559z M329.253,47.364h3.199
	l-0.976-3.172c-0.302-0.974-0.523-1.766-0.664-2.375c-0.121,0.734-0.293,1.464-0.515,2.188L329.253,47.364z"/>
<path d="M335.848,49.083l1.148-0.188c0.24,1.505,0.849,2.258,1.824,2.258c0.526,0,0.983-0.223,1.37-0.669
	c0.386-0.446,0.579-1.024,0.579-1.733c0-0.668-0.177-1.205-0.531-1.612c-0.354-0.407-0.789-0.61-1.305-0.61
	c-0.219,0-0.489,0.052-0.812,0.156l0.133-1.234l0.181,0.016c0.569,0,1.032-0.174,1.388-0.522c0.355-0.348,0.533-0.813,0.533-1.396
	c0-0.535-0.149-0.965-0.446-1.29c-0.298-0.325-0.66-0.487-1.089-0.487c-0.443,0-0.818,0.171-1.124,0.512
	c-0.305,0.341-0.5,0.858-0.583,1.551l-1.148-0.25c0.146-0.979,0.474-1.719,0.984-2.219s1.128-0.75,1.852-0.75
	c0.761,0,1.406,0.281,1.938,0.843s0.797,1.27,0.797,2.124c0,0.521-0.112,0.981-0.338,1.382s-0.54,0.716-0.944,0.945
	c0.374,0.104,0.683,0.276,0.926,0.515c0.244,0.239,0.441,0.56,0.592,0.96s0.226,0.848,0.226,1.343c0,1.051-0.31,1.912-0.93,2.581
	c-0.62,0.668-1.362,1.003-2.227,1.003c-0.802,0-1.481-0.292-2.039-0.875C336.244,50.852,335.926,50.067,335.848,49.083z"/>
<path d="M261.686,71.396V59.942h3.527c0.715,0,1.28,0.11,1.697,0.332c0.417,0.221,0.759,0.566,1.024,1.034
	c0.267,0.469,0.399,0.986,0.399,1.554c0,0.525-0.114,0.999-0.344,1.421c-0.229,0.421-0.552,0.76-0.969,1.015
	c0.544,0.198,0.974,0.536,1.287,1.013c0.313,0.477,0.471,1.064,0.471,1.763c0,0.693-0.142,1.302-0.426,1.825
	c-0.284,0.524-0.663,0.904-1.137,1.142c-0.474,0.237-1.125,0.355-1.953,0.355H261.686z M262.928,64.755h2.035
	c0.532,0,0.91-0.036,1.135-0.109c0.323-0.109,0.573-0.293,0.747-0.551c0.176-0.258,0.263-0.608,0.263-1.051
	c0-0.411-0.079-0.754-0.239-1.027c-0.158-0.273-0.37-0.462-0.633-0.566c-0.264-0.104-0.738-0.156-1.422-0.156h-1.886V64.755z
	 M262.928,70.044h2.34c0.517,0,0.897-0.047,1.143-0.141c0.354-0.135,0.625-0.358,0.81-0.668c0.186-0.31,0.278-0.699,0.278-1.168
	c0-0.432-0.089-0.798-0.267-1.098c-0.177-0.299-0.416-0.518-0.716-0.656c-0.3-0.138-0.771-0.207-1.412-0.207h-2.176V70.044z"/>
<path d="M274.334,71.442h-1.156v-8.961c-0.266,0.312-0.622,0.632-1.07,0.957c-0.448,0.326-0.859,0.572-1.234,0.738v-1.359
	c0.636-0.364,1.196-0.81,1.684-1.336c0.487-0.526,0.829-1.039,1.027-1.539h0.75V71.442z"/>
<path d="M292.693,71.396V59.942h3.527c0.715,0,1.28,0.11,1.697,0.332c0.417,0.221,0.759,0.566,1.024,1.034
	c0.267,0.469,0.399,0.986,0.399,1.554c0,0.525-0.114,0.999-0.344,1.421c-0.229,0.421-0.552,0.76-0.969,1.015
	c0.544,0.198,0.974,0.536,1.287,1.013c0.313,0.477,0.471,1.064,0.471,1.763c0,0.693-0.142,1.302-0.426,1.825
	c-0.284,0.524-0.663,0.904-1.137,1.142c-0.474,0.237-1.125,0.355-1.953,0.355H292.693z M293.935,64.755h2.035
	c0.532,0,0.91-0.036,1.135-0.109c0.323-0.109,0.573-0.293,0.747-0.551c0.176-0.258,0.263-0.608,0.263-1.051
	c0-0.411-0.079-0.754-0.239-1.027c-0.158-0.273-0.37-0.462-0.633-0.566c-0.264-0.104-0.738-0.156-1.422-0.156h-1.886V64.755z
	 M293.935,70.044h2.34c0.517,0,0.897-0.047,1.143-0.141c0.354-0.135,0.625-0.358,0.81-0.668c0.186-0.31,0.278-0.699,0.278-1.168
	c0-0.432-0.089-0.798-0.267-1.098c-0.177-0.299-0.416-0.518-0.716-0.656c-0.3-0.138-0.771-0.207-1.412-0.207h-2.176V70.044z"/>
<path d="M307.076,70.091v1.352h-6.211c-0.016-0.547,0.149-1.16,0.496-1.837c0.347-0.678,0.98-1.478,1.902-2.4
	c1.078-1.074,1.784-1.904,2.117-2.491c0.333-0.586,0.5-1.132,0.5-1.638c0-0.584-0.171-1.06-0.512-1.427s-0.762-0.551-1.262-0.551
	c-0.536,0-0.977,0.199-1.32,0.596c-0.344,0.397-0.516,0.967-0.516,1.709l-1.188-0.148c0.083-1.099,0.395-1.926,0.934-2.48
	s1.249-0.832,2.129-0.832c0.958,0,1.684,0.323,2.176,0.968s0.738,1.379,0.738,2.202c0,0.729-0.192,1.428-0.578,2.097
	s-1.117,1.562-2.195,2.677c-0.688,0.704-1.132,1.184-1.332,1.439s-0.363,0.511-0.488,0.766H307.076z"/>
<rect x="284.487" y="56.132" fill="none" stroke="#000000" stroke-miterlimit="10" width="33.209" height="19.231"/>
</svg>
